<svg aria-hidden="true" focusable="false" id="logo" xmlns="http://www.w3.org/2000/svg" viewBox="0 0 730.2 825.77"><defs><style>.cls-1{fill:#fff;}</style></defs><path class="cls-1" d="M1162.43,1764.05h-1536v-2048h1536ZM314.84,770.92A82.24,82.24,0,0,0,344.41,793C381,809.21,419,820.49,459,824.25c58.23,5.47,114-3.68,166.58-29.38,66.54-32.54,119-108.94,101.08-202.44-9.81-51.23-35.47-94-72.29-130.31-23.9-23.57-51.91-41.71-80.53-58.82-35.86-21.45-72.12-42.24-108.11-63.47C442.5,326.13,421,310.11,402.9,290c-21.59-24-35.11-51.48-33.29-84.57,1.14-20.73,6.49-40.73,13.81-60.13,15-39.65,38.67-72.75,73.64-97.24,4-2.81,8.45-5,12.69-7.47l-.95-1.09c-44,16.62-73.13,49.13-94.29,90.89,6.55-49.85,32.41-90.2,58.9-130.4a27,27,0,0,0-5.49,4.12c-21.81,21.33-35.06,47.93-46.47,75.64-9.3,22.56-11.66,46.73-16.06,70.42-1.2,6.48-2.51,12.94-3.77,19.41L360,169.5c.9-47.73-9.67-92.65-32.71-134.51A155.41,155.41,0,0,0,331,50.38c13.49,43.63,17.84,88.31,15.51,133.76-2,39.8-16.48,74.92-41.24,105.69-19.33,24-44.95,39.86-72.8,52.26-18.4,8.18-36.95,16-55.38,24.12-35.73,15.74-70.56,33.06-101.06,58-24.67,20.15-46.3,43-59.46,72.32C-1.68,537.31-4.48,580.08,6.31,623.08c11.11,44.31,34.42,82.39,65.45,115.75,22.38,24.06,49,41.39,81,50C187,798,222,798.51,256.92,796.51,278.78,795.25,297.58,785.12,314.84,770.92Z"/><path d="M314.84,770.92c-17.26,14.2-36.06,24.33-57.92,25.59-35,2-70,1.47-104.21-7.71-32-8.58-58.57-25.91-80.95-50-31-33.36-54.34-71.44-65.45-115.75-10.79-43-8-85.77,10.3-126.58,13.16-29.35,34.79-52.17,59.46-72.32,30.5-24.91,65.33-42.23,101.06-58,18.43-8.12,37-15.94,55.38-24.12,27.85-12.4,53.47-28.24,72.8-52.26,24.76-30.77,39.2-65.89,41.24-105.69,2.33-45.45-2-90.13-15.51-133.76A155.41,155.41,0,0,1,327.3,35c23,41.86,33.61,86.78,32.71,134.51l1.61.09c1.26-6.47,2.57-12.93,3.77-19.41,4.4-23.69,6.76-47.86,16.06-70.42,11.41-27.71,24.66-54.31,46.47-75.64A27,27,0,0,1,433.41,0c-26.49,40.2-52.35,80.55-58.9,130.4,21.16-41.76,50.25-74.27,94.29-90.89l.95,1.09c-4.24,2.47-8.68,4.66-12.69,7.47-35,24.49-58.68,57.59-73.64,97.24-7.32,19.4-12.67,39.4-13.81,60.13-1.82,33.09,11.7,60.6,33.29,84.57,18.11,20.1,39.6,36.12,62.82,49.82,36,21.23,72.25,42,108.11,63.47,28.62,17.11,56.63,35.25,80.53,58.82,36.82,36.32,62.48,79.08,72.29,130.31,17.93,93.5-34.54,169.9-101.08,202.44C573,820.57,517.22,829.72,459,824.25c-40-3.76-78-15-114.58-31.27A82.24,82.24,0,0,1,314.84,770.92Zm39-545.6c-.08.22-.32.81-.5,1.42C336.48,284.16,301.09,326.05,247.27,352,217.9,366.16,188,379.11,158.4,392.91a348.11,348.11,0,0,0-76.14,48.28C26.62,487.64,8.79,547.28,23.77,616.53,33.4,661,57.11,698.94,88.55,731.84c21.68,22.68,47.69,37.95,78.66,43.52,20.61,3.72,41.51,5.8,62.27,8.73,10.91,1.54,21.89,2.41,32.75.5,16.49-2.88,31.49-9.24,44.13-20.64,5.69-5.14,7.27-5.06,12-1.28,13.22,10.56,27.35,19.47,43.67,24.52,9.06,2.8,18.07,5.76,27.09,8.66,60.58,19.48,121.57,22,182.92,4,31.59-9.27,61.48-22,85.78-45.17,43.37-41.32,62.47-91.63,54.27-151.24-5.38-39.18-22.53-73.58-46.49-104.71-22.19-28.83-50.34-50.9-81.15-69.55C542.74,404,500.29,379.9,458.59,354.59a428.51,428.51,0,0,1-45.18-32c-20.89-16.73-38.43-36.63-48.47-61.9C360.39,249.21,357.49,237.09,353.85,225.32Z"/><path class="cls-1" d="M353.85,225.32c3.64,11.77,6.54,23.89,11.09,35.35,10,25.27,27.58,45.17,48.47,61.9a428.51,428.51,0,0,0,45.18,32c41.7,25.31,84.15,49.37,125.88,74.62,30.81,18.65,59,40.72,81.15,69.55,24,31.13,41.11,65.53,46.49,104.71,8.2,59.61-10.9,109.92-54.27,151.24-24.3,23.16-54.19,35.9-85.78,45.17-61.35,18-122.34,15.45-182.92-4-9-2.9-18-5.86-27.09-8.66-16.32-5.05-30.45-14-43.67-24.52-4.75-3.78-6.33-3.86-12,1.28-12.64,11.4-27.64,17.76-44.13,20.64-10.86,1.91-21.84,1-32.75-.5-20.76-2.93-41.66-5-62.27-8.73-31-5.57-57-20.84-78.66-43.52C57.11,698.94,33.4,661,23.77,616.53c-15-69.25,2.85-128.89,58.49-175.34a348.11,348.11,0,0,1,76.14-48.28c29.55-13.8,59.5-26.75,88.87-40.91,53.82-25.95,89.21-67.84,106.08-125.26C353.53,226.13,353.77,225.54,353.85,225.32ZM588.74,664.05c-5.86,4-11.53,8.31-17.6,12-9.41,5.64-18.91,11.19-28.73,16.07-6.61,3.27-11.17,0-9.93-7.06,1.31-7.48,3-15.15,6.17-22,2.87-6.15,8.55-10.55,15.52-12.76-1,3.44-2.9,6.4-3.88,9.63A53.59,53.59,0,0,0,548.43,671c-.09,1,1.3,2.9,2,2.91A4.51,4.51,0,0,0,554,672c3.19-6.73,6.74-13.41,8.85-20.5,1.15-3.84.28-8.61-.75-12.69-1.1-4.33-5.48-6.2-9.62-4.46-3.32,1.39-7,3-9.3,5.58-8.32,9.08-16.45,18.4-20.78,30.26-2.68,7.34-5.2,14.75-8,22-1.06,2.75-2.29,5.66-4.25,7.74a7.18,7.18,0,0,1-6,1.73c-1.48-.41-2.75-3-3.33-4.84a10.13,10.13,0,0,1,.23-5.42c2.26-8.16,4.72-16.26,7.08-24.39,1.11-3.83,2.67-7.63,3-11.53.19-2.29-1.63-4.76-2.54-7.14-1.87,1.36-4.07,2.43-5.55,4.13-7.83,9.06-15,18.77-23.34,27.32-7.42,7.58-16.73,12.74-27.78,13.2-6.24.25-9.5-2.36-11.63-8.21-2-5.6-.73-10.45,3.9-14.16,2.86-2.29,5.85-4.43,8.66-6.77,13.19-11,27.16-21.41,35.77-36.64,6-10.57,9.35-22.18,4.15-34.37-3.51-8.24-8.2-9.87-15.74-4.92a64.55,64.55,0,0,0-12,10.48c-16.19,17.77-24.93,39.52-32.47,61.88a14.19,14.19,0,0,1-2.24,4.85q-14.19,16.08-28.65,31.91c-2,2.2-4.69,3.81-8.1,6.52.16-2.79,0-4,.32-5,2.75-9.23,5.82-18.38,8.31-27.68a53.29,53.29,0,0,0,2.15-14.63c-.12-5.69-2.8-7.07-8.39-5.67-1.32.33-2.67.54-3.95.8,1.17-7.25,2.68-13.94,3.23-20.71.57-7-2.68-11.56-8.28-11.31-4.45.2-9.58,1.21-13.08,3.72-10,7.14-12.26,18.25-12.58,29.68-.25,8.86,2.53,16.62,11,21.11-5.75,10.77-11.21,21.24-17,31.57-1.51,2.71-2.91,6.28-7.72,5.4-1.46-8.72-2.23-17.43.48-26.09,1.79-5.71,4.14-11.28,5.55-17.07.75-3.08.35-6.55-.16-9.75-.17-1.1-2.12-2.31-3.5-2.75a35.3,35.3,0,0,0-6.3-.91c-3.91-.51-7.84-1.56-11.74-1.43-10.7.34-19.09,6.28-27.29,12.37-4,2.94-7.69,6.21-11.71,9.48-1.83-10.43-3.41-20.39-5.45-30.25-.5-2.43-2.51-4.55-4.24-7.51-.08.1.73-.92,1.57-1.91,7.8-9.23,9.43-19.5,5.49-30.85a10.46,10.46,0,0,0-7.54-7.22c-9.33-2.67-24,3.77-28.58,13.72-5.58,12-10.28,24.51-15.28,36.82-1.06,2.61-1.13,6-2.9,7.83-1.55,1.61-4.83,1.55-8,2.4l7.28,1.81a81.51,81.51,0,0,0-2.43,35.89c1.6,11.1,11.24,15.56,20.19,9.2a66.64,66.64,0,0,0,14.43-14.17c5.16-6.84,9.15-14.55,13.7-22,3.09,7.62,1.28,14-4.05,19.16-7.29,7-14.77,14-20.86,22.05-10.44,13.73-15,29.56-12.93,47,.86,7.09,4.07,10.07,11.11,10.28,9.85.3,16.49-5.51,19.69-13.63,6.13-15.58,11.9-31.46,15.72-47.71,1.81-7.72,4-13.4,10.65-17.56,3.94-2.48,7.51-5.57,12.14-9.06-.3,4-.59,6.49-.64,9-.08,3.9-.1,8.56,4,9.88,3,1,7-.23,10.28-1.19,2.12-.61,3.89-2.49,5.76-3.88,1.62-1.2,3.16-2.52,5.28-4.22,0,5.08-.35,9.12.07,13.07a135.33,135.33,0,0,0,3,19.17c1.75,6.82,7.79,8.61,13.1,4a37.28,37.28,0,0,0,7.68-9.73c6.93-12.33,13.69-24.76,20.12-37.36,2.05-4,4.87-5.22,9.24-5.37a36.24,36.24,0,0,0-1.85,5.58c-1.66,10.62-4.44,21.27-4.38,31.89.05,9.93,7.83,12.67,15.56,6.19,4.41-3.68,7.74-8.64,11.59-13,5.34-6,10.73-12,16.09-18,1.4,2.65,1.46,4.62,1.84,6.52,3.71,18.69,12.56,26,30.95,19.42a59.82,59.82,0,0,0,25.68-17.62c1.85-2.17,3.8-4.25,5.7-6.38.66,2.42.14,4.24.24,6,.39,6.92,0,14.09,1.75,20.66,2.37,8.71,11.95,10.73,18.14,4.15,3.44-3.66,6-8.33,8.22-12.9,1.78-3.63,2.48-7.8,4-13,.3,2.27.4,3.23.55,4.18,1.72,10.35,9.28,14.2,18.7,9.44a64.89,64.89,0,0,0,5.9-3.72C564.73,691.76,577.24,678.64,588.74,664.05ZM271.31,466.52l1.05,1.38c-2,9.07-3.66,18.22-6.09,27.17a17.61,17.61,0,0,1-10.45,11.48c-6.21,2.69-9.76.68-11-5.84a46.86,46.86,0,0,0-1.77-7.77c-.5-1.33-2.25-3.27-3.21-3.14a61.18,61.18,0,0,0-10.59,2.63c-7.82,2.49-11.24,9-13.82,16-2.36,6.39-4,13.06-6.3,19.45-5.23,14.18-23.49,22-36.69,16.17-3.57-1.59-5-3.38-3.79-7.55,2.71-9.6,5.07-19.31,7.23-29.05,3.15-14.21,5.57-28.63,2.39-43.06a141.23,141.23,0,0,0-8.87-27.31c-3.37-7.53-9.75-7.44-14.92-1-6.74,8.42-5.76,17.51-2.5,26.81,0-3.43-.33-6.87-.38-10.31-.06-4.69,2.23-8.31,5.84-11.06,2.55-1.94,4.6-1.9,5.18,2,.55,3.6,1.87,7.2,1.79,10.77-.31,14-.36,28-1.83,41.82-1.11,10.4-4.23,20.59-6.54,31.26-10.83-6-18.9-.51-21.35,8.34-2.55,9.16-1.47,18.16,1.71,27,1.91,5.31,4.42,10.63,10.84,11.09s9.47-4.8,12.14-9.64c1.88-3.4,3.22-7.1,4.83-10.75,20.94,11.6,36.19,3.92,48.68-13.72.66,2.15,1.08,3.76,1.66,5.31,3.86,10.42,14.53,12.59,22,4.29a31.07,31.07,0,0,0,5.83-9.2c2.11-5.35,3.44-11,4.92-15.91l17.19-3.63c0,3.59-.32,7.73.06,11.8.73,7.77,1.19,15.66,3,23.21,2.51,10.56,11.9,15,21.16,9.39,11.17-6.78,22.58-14,29.41-25.73,5.39-9.25,9.68-19.16,14.08-28,4,5,8.86,11,13.82,17.19-1.63,1.81-3.47,3.72-5.16,5.75-5.49,6.62-8,14.08-6.51,22.74,1.37,7.89,8.3,15,16.22,16.32,5.44.94,10.63-2.61,14.58-10.68,5.46-11.18,7.15-22.73,2.65-34.8a5.67,5.67,0,0,1,1.22-5c8.29-7.69,16.81-15.13,25.28-22.63,1.75-1.54,3.6-3,5.35-4.51s3.42-3.1,5.12-4.66L404,490,357.9,516.79c-5.95-4.21-12.94-9-19.7-14.06-1.55-1.16-3.69-4-3.24-4.94,3-6.32,6.57-12.36,10-18.48l1.84.5c.65,1.41,1.24,2.86,2,4.24,2.7,5.12,5.1,10.46,8.35,15.21,1.32,1.93,4.55,2.54,6.91,3.75,1.07-2.77,2.55-5.47,3.06-8.34a6.75,6.75,0,0,0-1.88-5c-6.62-6.91-9.28-15.57-11.65-24.47a42.65,42.65,0,0,0-2.93-6.66l21.08-18.95c-.28-.47-.57-.93-.86-1.4-23.75,15-50.6,10.6-75.11,13.27,0-5.58.34-10.61-.18-15.54-.18-1.69-2.26-3.86-3.94-4.43-1-.34-3.38,1.76-4.29,3.28a150.11,150.11,0,0,0-8.53,15.78,11.3,11.3,0,0,1-6.62,6.64c-8.36,3.42-12.71,10.94-17.76,18.14Zm-94.6-66-.3-.27c-4.06,2.22-8,4.63-12.2,6.62-42,20-74,51.87-101.87,88.08-22.45,29.19-30.17,62.67-23.84,99,4.72,27.14,18,50.18,35.34,71.18,12.07,14.58,27.13,25.19,43.61,34.16a65.31,65.31,0,0,0-6-7.8c-21.6-24.57-35.88-53.09-45.57-84.1C54.7,571.54,55.6,536.52,75.54,503.84c17.33-28.42,38.18-54.24,64-75.58C151.39,418.41,164.27,409.73,176.71,400.52ZM462.28,515.15c-.62,10.75-1.72,21.51-1.69,32.27,0,9.16,1.42,18.35,7.58,25.84,4.61,5.61,8.91,5.32,13.55-.26,8.44-10.17,9.49-22.07,8.14-34.45-.8-7.4-2.24-14.73-3.42-22.3,12,5.51,22.16-1.08,23.78-15.88-3.59,6.67-7.59,12.54-15.15,11.89-5.62-.49-8-5.81-10.06-10.18,7.22-7.66,14.56-14.71,21-22.47,8.21-9.83,10.39-21.49,7.12-33.79-2.33-8.78-10.45-11.69-17.46-6-5,4.11-10,9.16-12.88,14.85-5.67,11.23-9.86,23.2-14.71,34.85-.55,1.33-1,3-2.08,3.75-5.35,4-11.17,7-18.07,7.19-.76-3.69-1.19-7.35-2.35-10.76-.55-1.61-2.47-3.71-3.86-3.79s-3.75,2.07-4,3.5c-.65,4.3-3.44,6.27-6.65,8.4a13,13,0,0,0-4.54,5.15c-2.82,6.36-6.05,12.73-7.56,19.44-1.8,8-3.39,16.39,1.25,24.33,4,6.79,10,8.58,15.56,3.16a39.08,39.08,0,0,0,9.31-14.31c2.36-6.63,2.87-13.91,4.09-20.46ZM604,766.83c19.5-18.74,38.39-38.1,50.24-62.41,27.39-56.16,18.72-110.39-12.49-162-19.18-31.75-46.83-56.6-72-83.37-3.57-3.8-8.17-6.63-13.18-10.62,6.78,8,13.38,14.44,18.49,21.94,16.94,24.9,33.32,50.18,50,75.28,10.52,15.86,17.38,33.19,21.91,51.63,11.14,45.38,5.33,88-19.41,128C619.17,738.77,611.84,753,604,766.83ZM513.21,627.68c5.8-3.19,11.45-6.69,17.43-9.5,15-7.08,30.21-13.87,45.36-20.72A36.47,36.47,0,0,0,597.06,573c3.34-12.12-2.59-19.47-15-18.55-4.86.36-9.62,1.92-14.69,3,0-1.71.08-3.54,0-5.35-.59-11.41-6.29-14.38-16.13-8.42-15.44,9.34-25.11,22.53-27.08,40.81-.63,5.79-1.09,11.59-1.74,17.38C521.35,611.13,520.11,620.4,513.21,627.68ZM229.38,399l.78.82a2.84,2.84,0,0,0,1,0c1.25-.46,2.47-1,3.71-1.48,24-9.54,44.77-24,63.4-41.8C316.6,339,332.81,320,341.92,295.85c2.7-7.17,4.24-14.35,3.07-22.12-1.58,5.25-2.19,10.81-4.78,15.2-6.86,11.58-13.78,23.29-22.11,33.8-15.19,19.16-33.86,34.8-53.5,49.3C252.71,380.82,241.11,390,229.38,399Zm125.7-110.55-.46-.3c-1.46,2.54-3.06,5-4.35,7.63a141.22,141.22,0,0,0-13.61,80.07,105.93,105.93,0,0,0,16.91,47,20.28,20.28,0,0,0,13.79,8.88c-2.93-3.9-6.83-7.43-8.67-11.82-14-33.4-18.58-67.89-10.59-103.56C350.2,307,352.74,297.77,355.08,288.47ZM460.21,394.54c-13.47-6.15-23.55-16.68-34.43-26.12-17.25-15-34-30.44-48.14-48.52-6.86-8.78-11.59-18.28-10.27-29.87a12,12,0,0,0,0-2c-.05-.66-.14-1.32-.21-2-4.79,14.43-1.24,27.36,7.06,39.27a183.1,183.1,0,0,0,11.93,15.38c15.2,17.54,31.31,34.1,51.09,46.68A46.36,46.36,0,0,0,460.21,394.54Z"/><path d="M588.74,664.05c-11.5,14.59-24,27.71-39.39,37.74a64.89,64.89,0,0,1-5.9,3.72c-9.42,4.76-17,.91-18.7-9.44-.15-1-.25-1.91-.55-4.18-1.56,5.2-2.26,9.37-4,13-2.24,4.57-4.78,9.24-8.22,12.9-6.19,6.58-15.77,4.56-18.14-4.15-1.78-6.57-1.36-13.74-1.75-20.66-.1-1.78.42-3.6-.24-6-1.9,2.13-3.85,4.21-5.7,6.38A59.82,59.82,0,0,1,460.43,711c-18.39,6.59-27.24-.73-30.95-19.42-.38-1.9-.44-3.87-1.84-6.52-5.36,6-10.75,12-16.09,18-3.85,4.34-7.18,9.3-11.59,13-7.73,6.48-15.51,3.74-15.56-6.19-.06-10.62,2.72-21.27,4.38-31.89a36.24,36.24,0,0,1,1.85-5.58c-4.37.15-7.19,1.36-9.24,5.37-6.43,12.6-13.19,25-20.12,37.36a37.28,37.28,0,0,1-7.68,9.73c-5.31,4.63-11.35,2.84-13.1-4a135.33,135.33,0,0,1-3-19.17c-.42-4-.07-8-.07-13.07-2.12,1.7-3.66,3-5.28,4.22-1.87,1.39-3.64,3.27-5.76,3.88-3.32,1-7.26,2.16-10.28,1.19-4.14-1.32-4.12-6-4-9.88.05-2.48.34-5,.64-9-4.63,3.49-8.2,6.58-12.14,9.06-6.61,4.16-8.84,9.84-10.65,17.56-3.82,16.25-9.59,32.13-15.72,47.71-3.2,8.12-9.84,13.93-19.69,13.63-7-.21-10.25-3.19-11.11-10.28-2.1-17.4,2.49-33.23,12.93-47,6.09-8,13.57-15,20.86-22.05,5.33-5.11,7.14-11.54,4.05-19.16-4.55,7.42-8.54,15.13-13.7,22a66.64,66.64,0,0,1-14.43,14.17c-9,6.36-18.59,1.9-20.19-9.2a81.51,81.51,0,0,1,2.43-35.89l-7.28-1.81c3.12-.85,6.4-.79,8-2.4,1.77-1.84,1.84-5.22,2.9-7.83,5-12.31,9.7-24.77,15.28-36.82,4.61-10,19.25-16.39,28.58-13.72a10.46,10.46,0,0,1,7.54,7.22c3.94,11.35,2.31,21.62-5.49,30.85-.84,1-1.65,2-1.57,1.91,1.73,3,3.74,5.08,4.24,7.51,2,9.86,3.62,19.82,5.45,30.25,4-3.27,7.75-6.54,11.71-9.48,8.2-6.09,16.59-12,27.29-12.37,3.9-.13,7.83.92,11.74,1.43a35.3,35.3,0,0,1,6.3.91c1.38.44,3.33,1.65,3.5,2.75.51,3.2.91,6.67.16,9.75-1.41,5.79-3.76,11.36-5.55,17.07-2.71,8.66-1.94,17.37-.48,26.09,4.81.88,6.21-2.69,7.72-5.4,5.74-10.33,11.2-20.8,17-31.57-8.49-4.49-11.27-12.25-11-21.11.32-11.43,2.63-22.54,12.58-29.68,3.5-2.51,8.63-3.52,13.08-3.72,5.6-.25,8.85,4.31,8.28,11.31-.55,6.77-2.06,13.46-3.23,20.71,1.28-.26,2.63-.47,3.95-.8,5.59-1.4,8.27,0,8.39,5.67a53.29,53.29,0,0,1-2.15,14.63c-2.49,9.3-5.56,18.45-8.31,27.68-.31,1-.16,2.2-.32,5,3.41-2.71,6.08-4.32,8.1-6.52q14.49-15.81,28.65-31.91a14.19,14.19,0,0,0,2.24-4.85c7.54-22.36,16.28-44.11,32.47-61.88a64.55,64.55,0,0,1,12-10.48c7.54-5,12.23-3.32,15.74,4.92,5.2,12.19,1.83,23.8-4.15,34.37C480,642.46,466,652.88,452.8,663.87c-2.81,2.34-5.8,4.48-8.66,6.77-4.63,3.71-5.94,8.56-3.9,14.16,2.13,5.85,5.39,8.46,11.63,8.21,11.05-.46,20.36-5.62,27.78-13.2,8.35-8.55,15.51-18.26,23.34-27.32,1.48-1.7,3.68-2.77,5.55-4.13.91,2.38,2.73,4.85,2.54,7.14-.34,3.9-1.9,7.7-3,11.53-2.36,8.13-4.82,16.23-7.08,24.39a10.13,10.13,0,0,0-.23,5.42c.58,1.86,1.85,4.43,3.33,4.84a7.18,7.18,0,0,0,6-1.73c2-2.08,3.19-5,4.25-7.74,2.8-7.29,5.32-14.7,8-22,4.33-11.86,12.46-21.18,20.78-30.26,2.35-2.57,6-4.19,9.3-5.58,4.14-1.74,8.52.13,9.62,4.46,1,4.08,1.9,8.85.75,12.69-2.11,7.09-5.66,13.77-8.85,20.5a4.51,4.51,0,0,1-3.51,1.92c-.73,0-2.12-1.94-2-2.91a53.59,53.59,0,0,1,1.86-11.07c1-3.23,2.85-6.19,3.88-9.63-7,2.21-12.65,6.61-15.52,12.76-3.18,6.81-4.86,14.48-6.17,22-1.24,7,3.32,10.33,9.93,7.06,9.82-4.88,19.32-10.43,28.73-16.07C577.21,672.36,582.88,668.05,588.74,664.05ZM279.38,640.48A71.42,71.42,0,0,1,247.23,658c-1,.25-2.21,2-2.39,3.26-1,6.69-2,13.4-2.36,20.13-.26,4.88,3.56,7.34,7.89,5.22,3.23-1.57,6.73-3.46,8.92-6.17C268.55,668.92,277,656.85,279.38,640.48Zm-31,10.84c3.94-2.14,7.73-3.43,10.53-5.86,8.34-7.26,16.72-14.56,24.24-22.65,4.9-5.28,2-10.9-5.25-11a19.52,19.52,0,0,0-18.08,10.41c-4.38,8.13-7.47,17-11,25.51A15.18,15.18,0,0,0,248.38,651.32Zm31.77,54.4-1.46-.69c-8.47,4.92-14.92,12.06-20.49,19.9-4.46,6.25-7.5,13.26-7.69,21.23-.07,3,.89,4,4,4.09,6.5.18,10.72-3.63,12.78-8.67C272.08,729.84,275.92,717.7,280.15,705.72Zm169.57-58,1.47,1.33c10.45-10.84,21.11-21.48,31.17-32.66,2-2.27,1.81-6.58,2.62-9.95-3,1.22-6.65,1.76-9,3.79C464.18,620.53,456.05,633.53,449.72,647.72Zm-62.8-12.18c-8.3-.51-15.29,5.23-15.56,11.8-.17,4,2.25,5.91,5.64,6.35,1.73.23,4.9-.47,5.28-1.52C384.18,646.9,385.37,641.38,386.92,635.54Zm-52.41,38.17c-7.95-1.8-10.52.23-11.46,8.16Z"/><path d="M271.31,466.52l-16.92,8.84c5.05-7.2,9.4-14.72,17.76-18.14a11.3,11.3,0,0,0,6.62-6.64,150.11,150.11,0,0,1,8.53-15.78c.91-1.52,3.31-3.62,4.29-3.28,1.68.57,3.76,2.74,3.94,4.43.52,4.93.18,10,.18,15.54,24.51-2.67,51.36,1.75,75.11-13.27.29.47.58.93.86,1.4L350.6,458.57a42.65,42.65,0,0,1,2.93,6.66c2.37,8.9,5,17.56,11.65,24.47a6.75,6.75,0,0,1,1.88,5c-.51,2.87-2,5.57-3.06,8.34-2.36-1.21-5.59-1.82-6.91-3.75-3.25-4.75-5.65-10.09-8.35-15.21-.73-1.38-1.32-2.83-2-4.24l-1.84-.5c-3.4,6.12-7,12.16-10,18.48-.45,1,1.69,3.78,3.24,4.94,6.76,5.07,13.75,9.85,19.7,14.06L404,490l.81.95c-1.7,1.56-3.38,3.14-5.12,4.66s-3.6,3-5.35,4.51c-8.47,7.5-17,14.94-25.28,22.63a5.67,5.67,0,0,0-1.22,5c4.5,12.07,2.81,23.62-2.65,34.8-3.95,8.07-9.14,11.62-14.58,10.68-7.92-1.36-14.85-8.43-16.22-16.32-1.5-8.66,1-16.12,6.51-22.74,1.69-2,3.53-3.94,5.16-5.75-5-6.16-9.78-12.15-13.82-17.19-4.4,8.85-8.69,18.76-14.08,28-6.83,11.72-18.24,19-29.41,25.73-9.26,5.61-18.65,1.17-21.16-9.39-1.79-7.55-2.25-15.44-3-23.21-.38-4.07-.06-8.21-.06-11.8l-17.19,3.63c-1.48,4.91-2.81,10.56-4.92,15.91a31.07,31.07,0,0,1-5.83,9.2c-7.51,8.3-18.18,6.13-22-4.29-.58-1.55-1-3.16-1.66-5.31-12.49,17.64-27.74,25.32-48.68,13.72-1.61,3.65-3,7.35-4.83,10.75-2.67,4.84-5.64,10.1-12.14,9.64s-8.93-5.78-10.84-11.09c-3.18-8.8-4.26-17.8-1.71-27,2.45-8.85,10.52-14.32,21.35-8.34,2.31-10.67,5.43-20.86,6.54-31.26,1.47-13.85,1.52-27.87,1.83-41.82.08-3.57-1.24-7.17-1.79-10.77-.58-3.86-2.63-3.9-5.18-2-3.61,2.75-5.9,6.37-5.84,11.06.05,3.44.39,6.88.38,10.31-3.26-9.3-4.24-18.39,2.5-26.81,5.17-6.47,11.55-6.56,14.92,1a141.23,141.23,0,0,1,8.87,27.31c3.18,14.43.76,28.85-2.39,43.06-2.16,9.74-4.52,19.45-7.23,29.05-1.18,4.17.22,6,3.79,7.55,13.2,5.88,31.46-2,36.69-16.17,2.35-6.39,3.94-13.06,6.3-19.45,2.58-7,6-13.51,13.82-16a61.18,61.18,0,0,1,10.59-2.63c1-.13,2.71,1.81,3.21,3.14a46.86,46.86,0,0,1,1.77,7.77c1.27,6.52,4.82,8.53,11,5.84a17.61,17.61,0,0,0,10.45-11.48c2.43-8.95,4.1-18.1,6.09-27.17Zm76.44-5.26-1.12-1.2c-1.33.54-2.62,1.18-4,1.62-6.78,2.2-13.49,4.68-20.39,6.43-10.53,2.68-21.2,1.14-31.77-.13-3.37-.4-4.95.59-6.27,3.84a131,131,0,0,0-8.65,67.57c.87,6.58,5.28,8.91,11.27,5.68,3.5-1.89,6.69-4.36,10-6.55,14.57-9.58,23.91-22.67,27.87-39.82a74.26,74.26,0,0,1,7.13-18.54c2.56-4.7,6.75-8.51,10.27-12.67C344,465.36,345.88,463.33,347.75,461.26Zm-107.3,57.56-.85-.72a70.08,70.08,0,0,0-2.51-7.45c-.73-1.6-2.24-4.16-3.17-4.07-2,.2-4.83,1.4-5.55,3a127.45,127.45,0,0,0-7,19.06c-.63,2.36.16,6.55,1.85,7.76,3.23,2.33,7.54,1.06,9.64-2.29C235.92,529.32,238,523.94,240.45,518.82ZM148,538.77a7.26,7.26,0,0,0-7.16,7.83c.21,6.8,3.15,11.75,7,11.69,3.24,0,8.8-8,8.89-12.7C156.75,542.72,151.58,538.67,148,538.77Zm196.52,11.08c6.65,4.35,8.85,4.31,11.78-.19,4.06-6.23,4.61-10.15-.9-12.91C351.92,540.93,348.37,545.22,344.52,549.85Z"/><path d="M154.71,408.52c-12.44,9.21-25.32,17.89-37.22,27.74-25.77,21.34-46.62,47.16-63.95,75.58C33.6,544.52,32.7,579.54,43.92,615.4c9.69,31,24,59.53,45.57,84.1a65.31,65.31,0,0,1,6,7.8c-16.48-9-31.54-19.58-43.61-34.16-17.38-21-30.62-44-35.34-71.18-6.33-36.34,1.39-69.82,23.84-99,27.87-36.21,59.84-68,101.87-88.08,4.17-2,8.14-4.4,12.2-6.62Z"/><path d="M462.28,515.15h-13c-1.22,6.55-1.73,13.83-4.09,20.46a39.08,39.08,0,0,1-9.31,14.31c-5.57,5.42-11.59,3.63-15.56-3.16-4.64-7.94-3.05-16.33-1.25-24.33,1.51-6.71,4.74-13.08,7.56-19.44a13,13,0,0,1,4.54-5.15c3.21-2.13,6-4.1,6.65-8.4.21-1.43,2.64-3.57,4-3.5s3.31,2.18,3.86,3.79c1.16,3.41,1.59,7.07,2.35,10.76,6.9-.15,12.72-3.17,18.07-7.19,1-.79,1.53-2.42,2.08-3.75,4.85-11.65,9-23.62,14.71-34.85,2.88-5.69,7.85-10.74,12.88-14.85,7-5.72,15.13-2.81,17.46,6,3.27,12.3,1.09,24-7.12,33.79-6.48,7.76-13.82,14.81-21,22.47,2,4.37,4.44,9.69,10.06,10.18,7.56.65,11.56-5.22,15.15-11.89-1.62,14.8-11.77,21.39-23.78,15.88,1.18,7.57,2.62,14.9,3.42,22.3,1.35,12.38.3,24.28-8.14,34.45-4.64,5.58-8.94,5.87-13.55.26-6.16-7.49-7.55-16.68-7.58-25.84C460.56,536.66,461.66,525.9,462.28,515.15Zm15.46-7.9-1.36-.3c-.7,1.25-1.72,2.43-2.05,3.78a62.47,62.47,0,0,0-1.55,8.81c-1,10-2.16,20-2.48,30.08-.08,2.49,2.76,5.07,4.26,7.62,1.95-2.66,3.95-5.28,5.79-8a4.76,4.76,0,0,0,.28-2.45c-.06-4.3.05-8.63-.3-12.92C479.6,525,478.62,516.12,477.74,507.25Zm-41.65-7.91-1.32-.56c-1.61,2.51-3.86,4.82-4.7,7.57a117.22,117.22,0,0,0-3.85,17.38c-.35,2.44.86,5.11,1.36,7.67a91.08,91.08,0,0,0,7.26-5.82,5.7,5.7,0,0,0,1.2-3.71C436.15,514.36,436.09,506.85,436.09,499.34Zm68.54-41.59c-8.89-2.54-18,11.44-21.18,24.77C492.07,475.07,500.86,468.87,504.63,457.75Z"/><path d="M640,785.83c7.8-13.88,15.13-28.06,23.5-41.59,24.74-40,30.55-82.62,19.41-128-4.53-18.44-11.39-35.77-21.91-51.63-16.66-25.1-33-50.38-50-75.28-5.11-7.5-11.71-14-18.49-21.94,5,4,9.61,6.82,13.18,10.62,25.21,26.77,52.86,51.62,72,83.37,31.21,51.65,39.88,105.88,12.49,162C678.43,747.73,659.54,767.09,640,785.83Z"/><path d="M513.21,627.68c6.9-7.28,8.14-16.55,9.18-25.87.65-5.79,1.11-11.59,1.74-17.38,2-18.28,11.64-31.47,27.08-40.81,9.84-6,15.54-3,16.13,8.42.09,1.81,0,3.64,0,5.35,5.07-1.07,9.83-2.63,14.69-3,12.43-.92,18.36,6.43,15,18.55A36.47,36.47,0,0,1,576,597.46c-15.15,6.85-30.32,13.64-45.36,20.72C524.66,621,519,624.49,513.21,627.68Zm7.64-8.1c-.51.09-.13.14.07,0,17.06-14.29,36.23-25.2,55.88-35.45,4.67-2.44,8.74-6.54,12.25-10.6,3.89-4.51,2.51-7.3-3.56-8.2-9-1.34-16.8,1.26-22.89,8.17-1.15,1.31-1.64,3.19-2.52,4.95-4.6-4.58-3.81-7.75-2.6-10.93,1.06-2.79,2.55-5.47,3.18-8.34.46-2.07-.18-4.37-.33-6.57-2.24.16-4.84-.36-6.65.6-13.4,7.1-22.94,17.42-26.06,32.76C525.33,597.24,523.07,608.55,520.85,619.58Z"/><path d="M229.38,399c11.73-9,23.33-18.2,35.22-27,19.64-14.5,38.31-30.14,53.5-49.3,8.33-10.51,15.25-22.22,22.11-33.8,2.59-4.39,3.2-9.95,4.78-15.2,1.17,7.77-.37,14.95-3.07,22.12C332.81,320,316.6,339,298.24,356.54c-18.63,17.75-39.37,32.26-63.4,41.8-1.24.5-2.46,1-3.71,1.48a2.84,2.84,0,0,1-1,0Z"/><path d="M355.08,288.47c-2.34,9.3-4.88,18.55-7,27.91-8,35.67-3.42,70.16,10.59,103.56,1.84,4.39,5.74,7.92,8.67,11.82a20.28,20.28,0,0,1-13.79-8.88,105.93,105.93,0,0,1-16.91-47,141.22,141.22,0,0,1,13.61-80.07c1.29-2.62,2.89-5.09,4.35-7.63Z"/><path d="M460.21,394.54a46.36,46.36,0,0,1-23-7.14c-19.78-12.58-35.89-29.14-51.09-46.68a183.1,183.1,0,0,1-11.93-15.38c-8.3-11.91-11.85-24.84-7.06-39.27.07.65.16,1.31.21,2a12,12,0,0,1,0,2c-1.32,11.59,3.41,21.09,10.27,29.87,14.12,18.08,30.89,33.54,48.14,48.52C436.66,377.86,446.74,388.39,460.21,394.54Z"/><path class="cls-1" d="M279.38,640.48c-2.39,16.37-10.83,28.44-20.09,39.95-2.19,2.71-5.69,4.6-8.92,6.17-4.33,2.12-8.15-.34-7.89-5.22.37-6.73,1.38-13.44,2.36-20.13.18-1.21,1.36-3,2.39-3.26A71.42,71.42,0,0,0,279.38,640.48Z"/><path class="cls-1" d="M248.38,651.32a15.18,15.18,0,0,1,.4-3.6c3.57-8.55,6.66-17.38,11-25.51A19.52,19.52,0,0,1,277.9,611.8c7.28.11,10.15,5.73,5.25,11-7.52,8.09-15.9,15.39-24.24,22.65C256.11,647.89,252.32,649.18,248.38,651.32Z"/><path class="cls-1" d="M280.15,705.72c-4.23,12-8.07,24.12-12.88,35.86-2.06,5-6.28,8.85-12.78,8.67-3.09-.08-4.05-1.12-4-4.09.19-8,3.23-15,7.69-21.23,5.57-7.84,12-15,20.49-19.9Z"/><path class="cls-1" d="M449.72,647.72c6.33-14.19,14.46-27.19,26.28-37.49,2.33-2,6-2.57,9-3.79-.81,3.37-.58,7.68-2.62,9.95-10.06,11.18-20.72,21.82-31.17,32.66Z"/><path class="cls-1" d="M386.92,635.54c-1.55,5.84-2.74,11.36-4.64,16.63-.38,1.05-3.55,1.75-5.28,1.52-3.39-.44-5.81-2.37-5.64-6.35C371.63,640.77,378.62,635,386.92,635.54Z"/><path class="cls-1" d="M334.51,673.71l-11.46,8.16C324,673.94,326.56,671.91,334.51,673.71Z"/><path class="cls-1" d="M347.75,461.26c-1.87,2.07-3.8,4.1-5.61,6.23-3.52,4.16-7.71,8-10.27,12.67a74.26,74.26,0,0,0-7.13,18.54c-4,17.15-13.3,30.24-27.87,39.82-3.34,2.19-6.53,4.66-10,6.55-6,3.23-10.4.9-11.27-5.68a131,131,0,0,1,8.65-67.57c1.32-3.25,2.9-4.24,6.27-3.84,10.57,1.27,21.24,2.81,31.77.13,6.9-1.75,13.61-4.23,20.39-6.43,1.36-.44,2.65-1.08,4-1.62Z"/><path class="cls-1" d="M240.45,518.82c-2.46,5.12-4.53,10.5-7.54,15.28-2.1,3.35-6.41,4.62-9.64,2.29-1.69-1.21-2.48-5.4-1.85-7.76a127.45,127.45,0,0,1,7-19.06c.72-1.59,3.56-2.79,5.55-3,.93-.09,2.44,2.47,3.17,4.07a70.08,70.08,0,0,1,2.51,7.45Z"/><path class="cls-1" d="M148,538.77c3.58-.1,8.75,4,8.69,6.82-.09,4.7-5.65,12.66-8.89,12.7-3.81.06-6.75-4.89-7-11.69A7.26,7.26,0,0,1,148,538.77Z"/><path class="cls-1" d="M344.52,549.85c3.85-4.63,7.4-8.92,10.88-13.1,5.51,2.76,5,6.68.9,12.91C353.37,554.16,351.17,554.2,344.52,549.85Z"/><path class="cls-1" d="M477.74,507.25c.88,8.87,1.86,17.73,2.59,26.61.35,4.29.24,8.62.3,12.92a4.76,4.76,0,0,1-.28,2.45c-1.84,2.73-3.84,5.35-5.79,8-1.5-2.55-4.34-5.13-4.26-7.62.32-10,1.49-20.07,2.48-30.08a62.47,62.47,0,0,1,1.55-8.81c.33-1.35,1.35-2.53,2.05-3.78Z"/><path class="cls-1" d="M436.09,499.34c0,7.51.06,15,0,22.53a5.7,5.7,0,0,1-1.2,3.71,91.08,91.08,0,0,1-7.26,5.82c-.5-2.56-1.71-5.23-1.36-7.67a117.22,117.22,0,0,1,3.85-17.38c.84-2.75,3.09-5.06,4.7-7.57Z"/><path class="cls-1" d="M504.63,457.75c-3.77,11.12-12.56,17.32-21.18,24.77C486.6,469.19,495.74,455.21,504.63,457.75Z"/><path class="cls-1" d="M520.85,619.58c2.22-11,4.48-22.34,6.77-33.64,3.12-15.34,12.66-25.66,26.06-32.76,1.81-1,4.41-.44,6.65-.6.15,2.2.79,4.5.33,6.57-.63,2.87-2.12,5.55-3.18,8.34-1.21,3.18-2,6.35,2.6,10.93.88-1.76,1.37-3.64,2.52-4.95,6.09-6.91,13.88-9.51,22.89-8.17,6.07.9,7.45,3.69,3.56,8.2-3.51,4.06-7.58,8.16-12.25,10.6-19.65,10.25-38.82,21.16-55.88,35.45C520.72,619.72,520.34,619.67,520.85,619.58Z"/></svg>