<svg id="Layer_1" enable-background="new 0 0 32 32" height="32" viewBox="0 0 512 512" width="32" xmlns="http://www.w3.org/2000/svg"><g><path d="m173.3 381.5c.9-30.7 7.2-64.1 17.3-91.6l.8-2.1c4.7-12.8 16-43.5 24.8-69.1 0 0 0 0 0-.1v-.1c4.1-11.8 7.7-22.6 9.8-30 1.4-4.7 2.4-12.2 3.2-21.5-2.2 5.6-4.6 11-7.4 16.3-10.7 20.8-36.8 59.8-61.1 81.4-48.7 43.3-76.2 111.7-62.6 155.7 5.8 19.6 20.3 35.5 39.2 43.1 16.8 6.9 35.7 7 52.5.3-14.9-24.3-17.2-58-16.5-82.3z"/><path d="m94.6 338.6c12.8-31.8 32.7-60.2 58.2-83 11.9-10.5 25.4-27 37-43.5-12.8 10.9-26.7 20.5-41.4 28.6-31.6 17.8-54.5 39.4-68.1 64.3-11.7 21.1-16.3 45.5-12.9 69.4 1.8 13.3 7.4 25.7 16.2 35.8-2.9-21.1.9-45.9 11-71.6z"/><path d="m266.8 67.9c-.6-21-1.1-39.2-1.4-49.4l-21.9 9.1c.3 17.8 1.4 86.9-1.6 131.4 11.1-24.4 19.9-47.3 24.9-91.1z"/><path d="m349.4 268.9c-22.7-20.2-51.4-60.4-61.4-86.2-2.4-6.4-4.5-12.9-6.2-19.5.4 11.4.7 20.7 1 26.7 1.7 39.5 17 62.8 30.5 83.2 3.6 5.4 6.9 10.5 10 15.8 16.4 28.2 24.5 61.1 23.3 95.3-1.1 30.4-9.4 59.3-23.4 81.5-.5.8-1 1.5-1.4 2.2 16.6 6.6 35 6.5 51.5-.2 18.8-7.7 32.6-23 38.9-43.1 13.5-44-14-112.4-62.8-155.7z"/><path d="m431.6 305.1c-13.6-24.8-36.5-46.4-68.1-64.3-21.2-12-38.8-25.3-53.1-40.2 12.7 21.4 31.5 45.6 46.9 59.3 25.5 22.8 45.4 51.2 58.2 83 9.7 24.6 13.6 48.4 11.3 69 9.6-10.3 15.8-23.4 17.7-37.3 3.4-24.1-1.2-48.4-12.9-69.5z"/><path d="m312.9 295c-2.9-5-6.2-10-9.7-15.3-14.3-21.8-30.6-46.5-32.5-89.3-.5-12.2-1.4-38.6-2.3-67.5-5.8 20-12.9 35.2-20.7 51.8-6.6 14-13.4 28.6-20.4 48-8.9 25.8-20.2 56.5-24.9 69.3l-.8 2.1c-19.2 52.3-24.7 128.4-.6 165.2 14.4 22 35.3 34.4 57.3 34.3 21.4-.2 40.8-12.3 54.6-34.2 24.9-39.2 32.7-108.3 0-164.4z"/></g></svg>